<?xml version="1.0" standalone="no"?>
<!DOCTYPE svg PUBLIC "-//W3C//DTD SVG 20010904//EN"
 "http://www.w3.org/TR/2001/REC-SVG-20010904/DTD/svg10.dtd">
<svg version="1.0" xmlns="http://www.w3.org/2000/svg"
 width="838.000000pt" height="838.000000pt" viewBox="0 0 838.000000 838.000000"
 preserveAspectRatio="xMidYMid meet">
<metadata>
Created by potrace 1.14, written by Peter Selinger 2001-2017
</metadata>
<g transform="translate(0.000000,838.000000) scale(0.100000,-0.100000)"
fill="#000000" stroke="none">
<path d="M5370 6881 c-217 -87 -612 -249 -878 -360 -266 -110 -486 -201 -490
-201 -3 0 -19 -12 -34 -27 -28 -27 -37 -77 -22 -117 3 -9 63 -55 133 -103 461
-317 919 -671 1215 -938 121 -109 156 -135 183 -135 13 0 101 33 196 74 423
181 963 380 1432 526 164 51 205 67 228 91 31 33 36 82 12 116 -20 29 -1257
1043 -1458 1196 -36 27 -58 37 -85 37 -24 0 -176 -56 -432 -159z"/>
<path d="M2875 6056 c-81 -19 -119 -37 -335 -153 -171 -92 -765 -407 -1060
-561 -245 -128 -259 -138 -304 -227 -78 -158 -41 -360 92 -502 49 -52 379
-341 1922 -1684 509 -442 1145 -995 1413 -1229 268 -234 523 -448 565 -476 42
-28 109 -64 147 -80 64 -26 81 -29 190 -29 175 0 143 -19 625 374 306 250 868
717 914 760 62 59 135 169 156 239 24 78 25 140 4 213 -39 133 -98 196 -512
542 l-162 136 84 27 c47 14 92 34 100 43 9 10 65 136 125 282 60 145 224 537
365 871 186 442 256 618 256 647 0 52 -38 91 -89 91 -58 0 -570 -162 -951
-300 -412 -150 -852 -340 -881 -380 -19 -26 -52 -167 -169 -725 -115 -551
-200 -1000 -200 -1054 0 -23 9 -42 29 -62 40 -39 84 -39 142 2 311 217 579
351 980 490 l96 33 49 -39 c308 -248 538 -442 569 -477 54 -62 78 -121 73
-178 -6 -55 -22 -80 -92 -136 -28 -23 -328 -268 -666 -545 -338 -277 -637
-514 -665 -528 -110 -53 -251 -37 -364 43 -72 51 -3937 3412 -3974 3455 -39
47 -53 102 -38 152 18 60 80 113 205 175 108 53 110 53 130 35 50 -45 128 -67
200 -57 31 5 167 74 446 227 221 121 411 226 422 233 65 46 85 122 47 182
l-20 33 42 30 c52 38 134 69 203 77 40 5 71 1 123 -14 62 -19 88 -38 298 -208
127 -102 238 -194 247 -203 15 -14 19 -68 33 -496 26 -785 40 -1109 49 -1123
4 -8 76 -64 160 -126 378 -281 638 -529 847 -811 132 -177 130 -175 179 -175
32 0 48 6 69 28 24 23 29 41 40 122 57 433 116 823 221 1483 27 168 28 191 16
216 -26 49 -364 348 -637 563 -312 245 -801 586 -853 595 -71 11 -111 -38
-108 -135 2 -52 0 -63 -10 -55 -86 66 -233 187 -270 223 -58 56 -136 104 -214
131 -76 27 -217 34 -299 15z m1552 -971 c99 -50 174 -154 213 -297 30 -113 39
-187 50 -424 16 -331 -8 -742 -44 -766 -20 -14 -37 -8 -61 18 -33 35 -39 94
-21 184 8 41 18 111 21 155 l6 80 -108 106 c-117 114 -180 166 -190 155 -5 -5
18 -276 32 -368 6 -41 -17 -54 -49 -26 -48 42 -87 199 -101 403 -4 55 -13 119
-21 143 -17 51 -18 109 -3 114 6 2 14 61 20 147 14 229 42 338 97 381 35 28
97 26 159 -5z m2250 -344 c103 -59 79 -190 -61 -339 -89 -94 -186 -166 -360
-268 l-141 -83 2 -47 c3 -75 61 -182 134 -246 33 -29 65 -61 70 -71 17 -30 -8
-81 -66 -136 -44 -42 -60 -51 -90 -51 -70 0 -122 45 -177 153 l-30 61 -22 -70
c-30 -93 -50 -128 -98 -175 -42 -41 -62 -48 -71 -25 -18 46 141 645 229 863
40 100 58 129 98 166 l31 28 -31 -15 c-42 -21 -77 -63 -104 -129 -20 -48 -28
-56 -62 -68 -54 -18 -72 -5 -76 54 -10 144 219 326 511 407 104 29 255 24 314
-9z"/>
<path d="M4355 4896 c-39 -39 -75 -204 -75 -348 0 -43 3 -49 43 -80 23 -18 90
-75 150 -126 83 -72 109 -89 114 -77 3 9 2 73 -1 143 -16 276 -64 428 -155
489 -42 29 -46 29 -76 -1z"/>
<path d="M6231 4539 c-90 -24 -119 -38 -80 -39 45 0 47 -29 7 -143 -12 -31
-18 -60 -15 -63 7 -7 201 91 267 136 84 57 88 64 52 100 -28 27 -36 30 -94 29
-35 0 -96 -9 -137 -20z"/>
<path d="M3460 5185 c-30 -30 -63 -55 -74 -55 -29 0 -98 -36 -142 -74 l-38
-33 -40 28 c-49 36 -70 36 -105 1 -26 -26 -46 -73 -71 -171 l-12 -44 -40 67
c-54 91 -110 149 -139 144 -48 -7 -92 -138 -112 -333 l-12 -110 -44 84 c-24
46 -59 101 -78 122 -29 33 -38 37 -55 28 -57 -31 -70 -114 -43 -289 l13 -85 1
75 c2 94 18 221 30 233 4 4 38 -48 75 -122 72 -139 106 -184 134 -179 28 5 44
55 74 233 15 93 30 176 33 184 4 10 20 -7 46 -47 42 -64 99 -112 132 -112 52
0 72 36 82 152 7 72 25 118 46 118 6 0 27 -17 45 -37 41 -44 56 -40 93 27 23
40 52 66 188 164 34 25 67 54 73 66 19 35 -4 22 -60 -35z"/>
</g>
</svg>
